<?xml version="1.0" standalone="no"?>
<!DOCTYPE svg PUBLIC "-//W3C//DTD SVG 20010904//EN"
 "http://www.w3.org/TR/2001/REC-SVG-20010904/DTD/svg10.dtd">
<svg version="1.0" xmlns="http://www.w3.org/2000/svg"
 width="4675.000000pt" height="4675.000000pt" viewBox="0 0 4675.000000 4675.000000"
 preserveAspectRatio="xMidYMid meet">

<g transform="translate(0.000000,4675.000000) scale(0.100000,-0.100000)"
fill="#000000" stroke="none">
<path d="M20130 37433 c-2107 -64 -4104 -699 -5839 -1855 -1490 -994 -2705
-2311 -3586 -3888 -110 -197 -362 -706 -453 -915 -479 -1097 -780 -2267 -887
-3445 -34 -374 -40 -536 -40 -1030 0 -495 7 -659 41 -1030 205 -2243 1088
-4368 2535 -6100 1177 -1410 2676 -2505 4374 -3195 926 -377 1946 -633 2965
-744 771 -84 1658 -84 2430 0 1701 185 3313 753 4764 1676 98 63 184 112 190
109 6 -2 1170 -1147 2587 -2543 1417 -1396 2805 -2763 3083 -3037 l507 -500
1425 1425 c783 783 1424 1427 1424 1430 0 5 -5117 5050 -5930 5846 l-205 201
44 63 c574 828 1009 1653 1341 2544 333 895 558 1887 644 2840 56 617 60 1321
10 1920 -141 1707 -650 3311 -1511 4765 -1318 2224 -3386 3938 -5803 4808
-1314 473 -2725 698 -4110 655z m955 -3314 c1924 -108 3775 -958 5136 -2357
1701 -1750 2484 -4161 2138 -6585 -215 -1513 -874 -2926 -1907 -4092 -151
-170 -493 -510 -657 -654 -1134 -993 -2484 -1631 -3940 -1865 -401 -64 -667
-86 -1122 -93 -498 -7 -797 10 -1238 73 -2521 357 -4722 1936 -5878 4215 -337
666 -587 1404 -716 2121 -219 1214 -159 2426 181 3603 426 1481 1308 2829
2505 3830 878 734 1936 1279 3038 1565 816 212 1596 288 2460 239z"/>
<path d="M34927 11672 l-1427 -1427 442 -441 c272 -270 466 -455 503 -479 155
-101 328 -148 550 -148 157 -1 249 11 411 53 333 86 650 253 984 519 127 101
365 340 474 476 274 342 466 729 538 1085 19 97 23 144 22 300 0 167 -3 195
-26 282 -27 100 -75 206 -130 287 -33 49 -604 629 -799 811 l-115 109 -1427
-1427z"/>
</g>
</svg>
