<svg xmlns="http://www.w3.org/2000/svg"  viewBox="0 0 100 100" width="100px" height="100px"><path fill="#9EBC9E" d="m82.68,17.8c-3.57-2.36-7.45-4.59-12.09-6.04-2.32-.72-4.85-1.22-7.57-1.29-2.71-.07-5.64.34-8.42,1.37l-1,.37c-.66.25-1.3.6-1.89,1.05-.37.29-.71.6-1.01.94-1.54,1.58-2.38,3.83-2.07,6.19l2.29,17.71c-3.1-.94-6.43-1.31-9.86-.98-14.02,1.35-24.29,13.81-22.94,27.82,1.35,14.02,13.81,24.29,27.82,22.94,14.02-1.35,24.29-13.81,22.94-27.82-.06-.58-.14-1.14-.23-1.7,0,0,0-.01,0-.02l-4.52-35.06c1.24-.28,2.66-.39,4.18-.31,3.27.17,6.88,1.12,10.47,2.42l.07.03c1.82.66,3.93.02,5.05-1.67,1.31-1.98.77-4.64-1.21-5.95Z"/><path fill="#101010" d="m43.5,72.01c2.57,0,4.68-1.93,4.97-4.42.03-.3-.19-.58-.49-.58-1.73,0-7.22,0-8.95,0-.31,0-.53.27-.49.58.29,2.49,2.4,4.42,4.97,4.42Z"/><path fill="#101010" d="m54.81,63.83c-.55,0-1-.45-1-1,0-1.02-.83-1.85-1.85-1.85s-1.85.83-1.85,1.85c0,.55-.45,1-1,1s-1-.45-1-1c0-2.12,1.73-3.85,3.85-3.85s3.85,1.73,3.85,3.85c0,.55-.45,1-1,1Z"/><path fill="#101010" d="m37.7,63.83c-.55,0-1-.45-1-1,0-1.02-.83-1.85-1.85-1.85s-1.85.83-1.85,1.85c0,.55-.45,1-1,1s-1-.45-1-1c0-2.12,1.73-3.85,3.85-3.85s3.85,1.73,3.85,3.85c0,.55-.45,1-1,1Z"/><path fill="#101010" d="m56.82,40.86c-.09,0-.18-.02-.26-.07-2.21-1.33-4.59-2.31-7.08-2.92-.27-.07-.43-.34-.37-.6.07-.27.33-.43.6-.37,2.59.63,5.06,1.65,7.36,3.03.24.14.31.45.17.69-.09.16-.26.24-.43.24Z"/></svg>